HIERARCHY
ROOT Hips
{
	OFFSET 0.00000 0.00000 0.00000
	CHANNELS 6 Xposition Yposition Zposition Zrotation Yrotation Xrotation 
	JOINT LHipJoint
	{
		OFFSET 0 0 0
		CHANNELS 3 Zrotation Yrotation Xrotation
		JOINT LeftUpLeg
		{
			OFFSET 1.52977 -1.71332 0.88991
			CHANNELS 3 Zrotation Yrotation Xrotation
			JOINT LeftLeg
			{
				OFFSET 2.23949 -6.15296 0.00000
				CHANNELS 3 Zrotation Yrotation Xrotation
				JOINT LeftFoot
				{
					OFFSET 2.68396 -7.37412 0.00000
					CHANNELS 3 Zrotation Yrotation Xrotation
					JOINT LeftToeBase
					{
						OFFSET 0.20538 -0.56428 2.52710
						CHANNELS 3 Zrotation Yrotation Xrotation
						End Site
						{
							OFFSET 0.00000 -0.00000 1.29919
						}
					}
				}
			}
		}
	}
	JOINT RHipJoint
	{
		OFFSET 0 0 0
		CHANNELS 3 Zrotation Yrotation Xrotation
		JOINT RightUpLeg
		{
			OFFSET -1.45689 -1.71333 0.88991
			CHANNELS 3 Zrotation Yrotation Xrotation
			JOINT RightLeg
			{
				OFFSET -2.36700 -6.50329 0.00000
				CHANNELS 3 Zrotation Yrotation Xrotation
				JOINT RightFoot
				{
					OFFSET -2.69814 -7.41308 0.00000
					CHANNELS 3 Zrotation Yrotation Xrotation
					JOINT RightToeBase
					{
						OFFSET -0.18734 -0.51471 2.37479
						CHANNELS 3 Zrotation Yrotation Xrotation
						End Site
						{
							OFFSET -0.00000 -0.00000 1.22113
						}
					}
				}
			}
		}
	}
	JOINT LowerBack
	{
		OFFSET 0 0 0
		CHANNELS 3 Zrotation Yrotation Xrotation
		JOINT Spine
		{
			OFFSET 0.04294 2.14638 -0.31163
			CHANNELS 3 Zrotation Yrotation Xrotation
			JOINT Spine1
			{
				OFFSET -0.00400 2.17216 0.01486
				CHANNELS 3 Zrotation Yrotation Xrotation
				JOINT Neck
				{
					OFFSET 0 0 0
					CHANNELS 3 Zrotation Yrotation Xrotation
					JOINT Neck1
					{
						OFFSET 0.03869 1.76598 0.14916
						CHANNELS 3 Zrotation Yrotation Xrotation
						JOINT Head
						{
							OFFSET -0.00760 1.75513 -0.18948
							CHANNELS 3 Zrotation Yrotation Xrotation
							End Site
							{
								OFFSET -0.00601 1.82444 -0.08310
							}
						}
					}
				}
				JOINT LeftShoulder
				{
					OFFSET 0 0 0
					CHANNELS 3 Zrotation Yrotation Xrotation
					JOINT LeftArm
					{
						OFFSET 3.73696 0.92058 0.01733
						CHANNELS 3 Zrotation Yrotation Xrotation
						JOINT LeftForeArm
						{
							OFFSET 5.22771 -0.00000 0.00000
							CHANNELS 3 Zrotation Yrotation Xrotation
							JOINT LeftHand
							{
								OFFSET 3.45251 -0.00000 0.00000
								CHANNELS 3 Zrotation Yrotation Xrotation
								JOINT LeftFingerBase
								{
									OFFSET 0 0 0
									CHANNELS 3 Zrotation Yrotation Xrotation
									JOINT LeftHandIndex1
									{
										OFFSET 0.55212 -0.00000 0.00000
										CHANNELS 3 Zrotation Yrotation Xrotation
										End Site
										{
											OFFSET 0.44513 -0.00000 0.00000
										}
									}
								}
								JOINT LThumb
								{
									OFFSET 0 0 0
									CHANNELS 3 Zrotation Yrotation Xrotation
									End Site
									{
										OFFSET 0.45193 -0.00000 0.45193
									}
								}
							}
						}
					}
				}
				JOINT RightShoulder
				{
					OFFSET 0 0 0
					CHANNELS 3 Zrotation Yrotation Xrotation
					JOINT RightArm
					{
						OFFSET -3.63819 0.83094 -0.13694
						CHANNELS 3 Zrotation Yrotation Xrotation
						JOINT RightForeArm
						{
							OFFSET -5.23980 -0.00000 -0.00000
							CHANNELS 3 Zrotation Yrotation Xrotation
							JOINT RightHand
							{
								OFFSET -3.48042 -0.00000 -0.00000
								CHANNELS 3 Zrotation Yrotation Xrotation
								JOINT RightFingerBase
								{
									OFFSET 0 0 0
									CHANNELS 3 Zrotation Yrotation Xrotation
									JOINT RightHandIndex1
									{
										OFFSET -0.61871 -0.00000 0.00000
										CHANNELS 3 Zrotation Yrotation Xrotation
										End Site
										{
											OFFSET -0.49882 -0.00000 0.00000
										}
									}
								}
								JOINT RThumb
								{
									OFFSET 0 0 0
									CHANNELS 3 Zrotation Yrotation Xrotation
									End Site
									{
										OFFSET -0.50644 -0.00000 0.50644
									}
								}
							}
						}
					}
				}
			}
		}
	}
}
MOTION
Frames: 6
Frame Time: .0083333
19.3636 15.5555 -6.3718 28.8387 -86.5130 -14.8971 0.0000 0.0000 0.0000 -16.1930 -1.1800 -44.2553 15.5942 19.5281 77.0203 1.0333 0.1273 19.1793 2.7116 -10.2129 -29.6691 0.0000 0.0000 0.0000 7.3532 16.9411 -70.1001 -12.0661 -18.4184 66.1981 0.0704 -13.7547 8.7768 -0.0128 0.7295 -2.0048 2.0564 -1.4554 39.6529 -1.2302 -2.4211 10.2457 -1.3441 -1.6038 -7.9223 1.8440 0.5364 2.9399 1.4832 0.4712 -27.6068 0.2238 -0.5662 -9.1147 0.0000 0.0000 0.0000 -82.6073 -0.1221 27.9630 23.2284 -34.3377 -7.2667 -0.0000 0.0000 -24.9496 19.0418 10.6357 3.6449 -7.1250 0.0000 -0.0000 -7.1232 41.1120 0.6870 0.0000 0.0000 0.0000 87.6988 -0.6329 30.5045 -24.5936 35.7857 -8.0510 0.0000 -0.0000 -2.1063 -19.2346 -8.4898 2.9488 7.1250 -0.0000 -0.0000 6.6189 -38.8833 1.0025
19.2129 15.5439 -6.3997 26.0419 -86.4048 -12.1607 0.0000 0.0000 0.0000 -15.6428 -1.4061 -44.1173 15.7639 19.5642 77.5275 1.2154 0.4010 20.7216 2.5380 -9.9067 -28.6752 0.0000 0.0000 0.0000 7.5361 16.9163 -69.9780 -12.3641 -18.5404 67.1384 0.0464 -13.1589 8.6339 -0.0227 0.9724 -2.6729 2.1771 -1.5283 39.6257 -1.1954 -2.4562 10.2361 -1.3562 -1.6194 -7.9265 1.8139 0.5354 2.9747 1.5281 0.4813 -27.5767 0.2431 -0.5608 -9.1107 0.0000 0.0000 0.0000 -82.6236 -0.0896 27.9590 23.2747 -34.3879 -7.2929 -0.0000 0.0000 -24.8649 18.8573 10.5077 3.5642 -7.1250 0.0000 -0.0000 -7.2630 40.9619 0.7276 0.0000 0.0000 0.0000 87.6946 -0.6259 30.5236 -24.6003 35.7926 -8.0550 0.0000 -0.0000 -2.1376 -19.1974 -8.5311 2.9568 7.1250 -0.0000 -0.0000 6.6568 -38.9239 1.0017
19.0652 15.5318 -6.4266 22.9516 -86.2821 -9.0886 0.0000 0.0000 0.0000 -15.0441 -1.7163 -44.1271 15.9757 19.6072 78.1595 1.4167 0.6533 22.3117 2.3622 -9.5830 -27.6366 0.0000 0.0000 0.0000 7.7876 16.8453 -69.8998 -12.6468 -18.6509 68.0249 0.0310 -12.6647 8.4716 -0.0324 1.1611 -3.1921 2.3375 -1.6152 39.5701 -1.1593 -2.4907 10.2121 -1.3882 -1.6337 -7.9385 1.7909 0.5249 2.9784 1.5716 0.4766 -27.5261 0.2618 -0.5626 -9.0936 -0.0000 -0.0000 0.0000 -82.6360 -0.0488 27.9653 23.3515 -34.4710 -7.3363 -0.0000 0.0000 -24.7802 18.5914 10.4926 3.5053 -7.1250 0.0000 -0.0000 -7.4932 40.9221 0.7584 -0.0000 -0.0000 0.0000 87.6957 -0.6460 30.5242 -24.6257 35.8190 -8.0699 0.0000 -0.0000 -2.1924 -19.1405 -8.5751 2.9624 7.1250 -0.0000 -0.0000 6.7119 -38.9657 1.0031
18.9207 15.5193 -6.4519 19.6663 -86.1551 -5.7833 0.0000 0.0000 0.0000 -14.4056 -2.0827 -44.2870 16.2300 19.6558 78.9162 1.6330 0.8795 23.9124 2.2027 -9.2761 -26.6630 0.0000 0.0000 0.0000 8.0927 16.7486 -69.8638 -12.9179 -18.7523 68.8704 0.0184 -12.2315 8.3275 -0.0432 1.3416 -3.6892 2.5281 -1.7116 39.4934 -1.1230 -2.5239 10.1762 -1.4366 -1.6467 -7.9576 1.7640 0.5140 2.9573 1.6175 0.4700 -27.4681 0.2821 -0.5652 -9.0693 -0.0000 -0.0000 0.0000 -82.6432 0.0048 27.9731 23.4640 -34.5923 -7.4000 -0.0000 0.0000 -24.7070 18.2632 10.5726 3.4650 -7.1250 0.0000 -0.0000 -7.7945 40.9758 0.7789 -0.0000 -0.0000 0.0000 87.6960 -0.6887 30.5282 -24.6734 35.8683 -8.0978 0.0000 -0.0000 -2.2745 -19.0663 -8.6086 2.9615 7.1250 -0.0000 -0.0000 6.7806 -38.9953 1.0086
18.7793 15.5069 -6.4757 16.3080 -86.0358 -2.3780 0.0000 0.0000 0.0000 -13.7412 -2.4701 -44.5863 16.5228 19.7076 79.7856 1.8586 1.0418 25.4944 2.0721 -9.0146 -25.8411 0.0000 0.0000 0.0000 8.4317 16.6521 -69.8540 -13.1790 -18.8458 69.6805 0.0076 -11.8498 8.2043 -0.0553 1.5176 -4.1743 2.7443 -1.8071 39.4126 -1.0874 -2.5458 10.1328 -1.5034 -1.6543 -7.9838 1.7381 0.4996 2.9218 1.6578 0.4552 -27.4234 0.3011 -0.5720 -9.0470 0.0000 0.0000 0.0000 -82.6433 0.0631 27.9965 23.6106 -34.7498 -7.4834 -0.0000 0.0000 -24.6603 17.9009 10.7471 3.4469 -7.1250 0.0000 -0.0000 -8.1432 41.1239 0.7843 0.0000 0.0000 0.0000 87.6937 -0.7477 30.5272 -24.7468 35.9440 -8.1408 0.0000 -0.0000 -2.3755 -18.9727 -8.6317 2.9537 7.1250 -0.0000 -0.0000 6.8644 -39.0124 1.0183
18.6412 15.4953 -6.4979 12.9602 -85.9327 1.0354 0.0000 0.0000 0.0000 -13.0640 -2.8496 -45.0151 16.8483 19.7602 80.7496 2.0906 1.1319 27.0463 1.9608 -8.7839 -25.1216 0.0000 0.0000 0.0000 8.7812 16.5774 -69.8567 -13.4297 -18.9319 70.4551 -0.0029 -11.5090 8.1140 -0.0675 1.6763 -4.6120 2.9722 -1.8959 39.3425 -1.0554 -2.5557 10.0836 -1.5845 -1.6565 -8.0197 1.7116 0.4879 2.8907 1.6941 0.4423 -27.4118 0.3192 -0.5790 -9.0372 -0.0000 0.0000 0.0000 -82.6344 0.1221 28.0268 23.7831 -34.9341 -7.5820 -0.0000 0.0000 -24.6549 17.5309 10.9328 3.4286 -7.1250 0.0000 -0.0000 -8.5020 41.2818 0.7860 -0.0000 0.0000 0.0000 87.6876 -0.8148 30.5365 -24.8414 36.0414 -8.1964 0.0000 -0.0000 -2.4900 -18.8831 -8.6310 2.9385 7.1250 -0.0000 -0.0000 6.9412 -39.0048 1.0311
